# xmcd
#
# Track frame offsets:
#	150
#	14602
#	24612
#	32857
#	37732
#	44680
#	57140
#	72555
#	100450
#	111607
#	126672
#	144320
#	157652
#	169412
#
# Disc length: 2392 seconds
#
# Revision: 2
# Processed by: cddbd v1.5.2PL0 Copyright (c) Steve Scherf et al.
# Submitted via: audiograbber 1.83.01
#
DISCID=cd09560e
DTITLE=Glen Campbell - Phoenix
DYEAR=1997
DGENRE=Country
TTITLE0=Rhinestone Cowboy
TTITLE1=Gentle On My Mind
TTITLE2=Witchita Lineman
TTITLE3=Galveston
TTITLE4=Country Boy (You Got Your Feet In LA)
TTITLE5=By The Time I Get To Phoenix
TTITLE6=I'm So Lonesome I Could Cry
TTITLE7=Milk Cow Blues
TTITLE8=Try A Little Kindness
TTITLE9=Crying
TTITLE10=Southern Night
TTITLE11=Heartache Number Three
TTITLE12=It's Only Make Believe
TTITLE13=Dreams Of The Everyday Housewife
EXTD=
EXTT0=
EXTT1=
EXTT2=
EXTT3=
EXTT4=
EXTT5=
EXTT6=
EXTT7=
EXTT8=
EXTT9=
EXTT10=
EXTT11=
EXTT12=
EXTT13=
PLAYORDER=
